<?xml version="1.0" encoding="UTF-8"?>
<!DOCTYPE svg PUBLIC "-//W3C//DTD SVG 1.1//EN" "http://www.w3.org/Graphics/SVG/1.1/DTD/svg11.dtd">
<!-- Creator: CorelDRAW X6 -->
<svg xmlns="http://www.w3.org/2000/svg" xml:space="preserve" width="86.2154mm" height="37.4263mm" version="1.1" style="shape-rendering:geometricPrecision; text-rendering:geometricPrecision; image-rendering:optimizeQuality; fill-rule:evenodd; clip-rule:evenodd"
viewBox="0 0 5247 2278"
 xmlns:xlink="http://www.w3.org/1999/xlink">
 <defs>
  <style type="text/css">
   <![CDATA[
    .fil0 {fill:#2B2A29;fill-rule:nonzero}
    .fil1 {fill:black;fill-rule:nonzero}
   ]]>
  </style>
 </defs>
 <g id="Layer_x0020_1">
  <metadata id="CorelCorpID_0Corel-Layer"/>
  <g id="_841399184">
   <path class="fil0" d="M58 476l0 -461 159 0c36,0 63,2 82,7 26,6 49,17 68,33 24,21 43,47 55,79 12,32 18,69 18,110 0,35 -4,66 -12,93 -8,27 -19,49 -31,67 -13,18 -27,32 -42,42 -15,10 -33,18 -55,23 -22,5 -46,8 -74,8l-166 0zm61 -54l98 0c30,0 54,-3 71,-8 17,-6 31,-14 41,-24 14,-14 26,-34 34,-59 8,-24 12,-54 12,-89 0,-48 -8,-85 -24,-111 -16,-26 -35,-43 -58,-52 -16,-6 -43,-9 -79,-9l-97 0 0 353z"/>
   <polygon class="fil0" points="902,476 902,15 963,15 963,476 "/>
   <path class="fil0" d="M1499 476l177 -461 67 0 188 461 -69 0 -53 -140 -194 0 -50 140 -65 0zm133 -189l157 0 -48 -128c-14,-39 -25,-71 -33,-96 -6,30 -15,60 -25,89l-51 135z"/>
   <polygon class="fil0" points="2385,476 2385,15 2446,15 2446,422 2673,422 2673,476 "/>
   <polygon class="fil0" points="3172,480 3172,18 3505,18 3505,73 3233,73 3233,214 3488,214 3488,268 3233,268 3233,426 3516,426 3516,480 "/>
   <path class="fil0" d="M4326 307l61 15c-13,50 -36,88 -69,115 -33,26 -74,40 -122,40 -50,0 -90,-10 -121,-30 -31,-20 -55,-49 -71,-88 -16,-38 -24,-80 -24,-124 0,-48 9,-90 27,-126 18,-36 44,-63 78,-81 34,-19 71,-28 112,-28 46,0 85,12 116,35 31,24 53,56 66,99l-60 14c-11,-33 -26,-58 -46,-73 -20,-15 -46,-23 -77,-23 -35,0 -65,8 -89,25 -24,17 -40,40 -50,68 -10,29 -14,58 -14,89 0,39 6,73 17,103 11,29 29,51 53,66 24,14 50,22 78,22 34,0 63,-10 87,-30 24,-20 40,-49 48,-88z"/>
   <polygon class="fil0" points="5006,476 5006,69 4854,69 4854,15 5219,15 5219,69 5067,69 5067,476 "/>
   <path class="fil0" d="M0 2278l177 -461 67 0 188 461 -69 0 -53 -140 -194 0 -50 140 -65 0zm133 -189l157 0 -48 -128c-14,-39 -25,-71 -33,-96 -6,30 -15,60 -25,89l-51 135z"/>
   <path class="fil0" d="M1101 2108l61 15c-13,50 -36,88 -69,115 -33,26 -74,40 -122,40 -50,0 -90,-10 -121,-30 -31,-20 -55,-49 -71,-88 -16,-38 -24,-80 -24,-124 0,-48 9,-90 27,-126 18,-36 44,-63 78,-81 34,-19 71,-28 112,-28 46,0 85,12 116,35 31,24 53,56 66,99l-60 14c-11,-33 -26,-58 -46,-73 -20,-15 -46,-23 -77,-23 -35,0 -65,8 -89,25 -24,17 -40,40 -50,68 -10,29 -14,58 -14,89 0,39 6,73 17,103 11,29 29,51 53,66 24,14 50,22 78,22 34,0 63,-10 87,-30 24,-20 40,-49 48,-88z"/>
   <path class="fil0" d="M1573 2278l0 -461 159 0c36,0 63,2 82,7 26,6 49,17 68,33 24,21 43,47 55,79 12,32 18,69 18,110 0,35 -4,66 -12,93 -8,27 -19,49 -31,67 -13,18 -27,32 -42,42 -15,10 -33,18 -55,23 -22,5 -46,8 -74,8l-166 0zm61 -54l98 0c30,0 54,-3 71,-8 17,-6 31,-14 41,-24 14,-14 26,-34 34,-59 8,-24 12,-54 12,-89 0,-48 -8,-85 -24,-111 -16,-26 -35,-43 -58,-52 -16,-6 -43,-9 -79,-9l-97 0 0 353z"/>
   <polygon class="fil0" points="2359,2277 2359,1816 2692,1816 2692,1870 2420,1870 2420,2012 2675,2012 2675,2066 2420,2066 2420,2223 2703,2223 2703,2277 "/>
   <polygon class="fil0" points="3289,2278 3289,1817 3350,1817 3350,2278 "/>
   <polygon class="fil0" points="4137,2278 4137,1817 4198,1817 4198,2224 4425,2224 4425,2278 "/>
   <polygon class="fil0" points="5034,2278 5034,1871 4882,1871 4882,1817 5247,1817 5247,1871 5095,1871 5095,2278 "/>
   <g>
    <path class="fil1" d="M176 1671l0 -1138 61 0 0 1138 -61 0zm5 64l51 -33 -51 0 156 -240 51 33 -156 240 -51 0zm0 0l51 0 -26 39 -26 -39zm-130 -257l26 -17 156 240 -51 33 -156 -240 26 -17zm851 193l0 -1138 61 0 0 1138 -61 0zm5 64l51 -33 -51 0 156 -240 51 33 -156 240 -51 0zm0 0l51 0 -26 39 -26 -39zm-130 -257l26 -17 156 240 -51 33 -156 -240 26 -17zm908 193l0 -1138 61 0 0 1138 -61 0zm5 64l51 -33 -51 0 156 -240 51 33 -156 240 -51 0zm0 0l51 0 -26 39 -26 -39zm-130 -257l26 -17 156 240 -51 33 -156 -240 26 -17zm925 193l0 -1138 61 0 0 1138 -61 0zm5 64l51 -33 -51 0 156 -240 51 33 -156 240 -51 0zm0 0l51 0 -26 39 -26 -39zm-130 -257l26 -17 156 240 -51 33 -156 -240 26 -17zm922 193l0 -1138 61 0 0 1138 -61 0zm5 64l51 -33 -51 0 156 -240 51 33 -156 240 -51 0zm0 0l51 0 -26 39 -26 -39zm-130 -257l26 -17 156 240 -51 33 -156 -240 26 -17zm1012 193l0 -1138 61 0 0 1138 -61 0zm5 64l51 -33 -51 0 156 -240 51 33 -156 240 -51 0zm0 0l51 0 -26 39 -26 -39zm-130 -257l26 -17 156 240 -51 33 -156 -240 26 -17zm963 193l0 -1138 61 0 0 1138 -61 0zm5 64l51 -33 -51 0 156 -240 51 33 -156 240 -51 0zm0 0l51 0 -26 39 -26 -39zm-130 -257l26 -17 156 240 -51 33 -156 -240 26 -17z"/>
   </g>
  </g>
 </g>
</svg>
