<?xml version="1.0" encoding="UTF-8"?>
<!DOCTYPE svg PUBLIC "-//W3C//DTD SVG 1.1//EN" "http://www.w3.org/Graphics/SVG/1.1/DTD/svg11.dtd">
<!-- Creator: CorelDRAW 2021 (64-Bit) -->
<svg xmlns="http://www.w3.org/2000/svg" xml:space="preserve" width="3.10772in" height="3.38889in" version="1.1" style="shape-rendering:geometricPrecision; text-rendering:geometricPrecision; image-rendering:optimizeQuality; fill-rule:evenodd; clip-rule:evenodd"
viewBox="0 0 3103 3384"
 xmlns:xlink="http://www.w3.org/1999/xlink"
 xmlns:xodm="http://www.corel.com/coreldraw/odm/2003">
 <defs>
  <style type="text/css">
   <![CDATA[
    .fil1 {fill:#373435;fill-rule:nonzero}
    .fil0 {fill:#282829;fill-rule:nonzero}
   ]]>
  </style>
 </defs>
 <g id="Layer_x0020_1">
  <metadata id="CorelCorpID_0Corel-Layer"/>
  <g id="_2614608887872">
   <g>
    <path class="fil0" d="M1508 321c0,-11 9,-21 21,-21 11,0 21,9 21,21l-42 0zm0 2625l0 -2625 42 0 0 2625 -42 0zm3 44l35 -23 -35 0 106 -164 35 23 -106 164 -35 0zm0 0l35 0 -17 27 -17 -27zm-89 -176l17 -11 107 164 -35 23 -107 -164 17 -11zm127 132c0,11 -9,21 -21,21 -11,0 -21,-9 -21,-21l42 0z"/>
   </g>
   <g>
    <path class="fil0" d="M68 336c-8,-8 -9,-21 -1,-29 8,-8 21,-9 29,-1l-28 31zm2850 2644l-2850 -2644 28 -31 2850 2644 -28 31zm34 27l7 -41 -24 26 -48 -190 40 -10 48 190 -24 26zm0 0l24 -26 8 31 -32 -6zm-189 -54l4 -20 193 34 -7 41 -193 -34 4 -20zm183 -4c8,8 9,21 1,29 -8,8 -21,9 -29,1l28 -31z"/>
   </g>
   <g>
    <path class="fil0" d="M2960 305c8,-8 22,-7 29,1 8,8 7,22 -1,29l-28 -31zm-2850 2644l2850 -2644 28 31 -2850 2644 -28 -31zm-30 32l40 10 -24 -26 193 -34 7 41 -193 34 -24 -26zm0 0l24 26 -32 6 8 -31zm68 -185l20 5 -48 190 -40 -10 48 -190 20 5zm-10 183c-8,8 -22,7 -29,-1 -8,-8 -7,-22 1,-29l28 31z"/>
   </g>
   <path class="fil1" d="M0 171l28 -4c1,18 4,31 10,38 6,7 14,10 25,10 8,0 15,-2 20,-5 6,-4 10,-9 12,-15 2,-6 3,-16 3,-30l0 -164 32 0 0 162c0,20 -2,35 -7,46 -5,11 -12,19 -23,25 -10,6 -23,9 -37,9 -21,0 -37,-6 -48,-18 -11,-12 -16,-30 -16,-54z"/>
   <polygon class="fil1" points="1452,254 1452,16 1613,16 1613,44 1484,44 1484,118 1596,118 1596,146 1484,146 1484,254 "/>
   <path class="fil1" d="M2876 260l0 -238 47 0 56 169c5,16 9,27 11,35 3,-9 7,-21 13,-38l57 -166 42 0 0 238 -30 0 0 -199 -70 199 -28 0 -69 -203 0 203 -30 0z"/>
   <path class="fil1" d="M16 3358l0 -238 47 0 56 169c5,16 9,27 11,35 3,-9 7,-21 13,-38l57 -166 42 0 0 238 -30 0 0 -199 -70 199 -28 0 -69 -203 0 203 -30 0z"/>
   <polygon class="fil1" points="1452,3374 1452,3136 1613,3136 1613,3164 1484,3164 1484,3238 1596,3238 1596,3266 1484,3266 1484,3374 "/>
   <path class="fil1" d="M2861 3312l28 -4c1,18 4,31 10,38 6,7 14,10 25,10 8,0 15,-2 20,-5 6,-4 10,-9 12,-15 2,-6 3,-16 3,-30l0 -164 32 0 0 162c0,20 -2,35 -7,46 -5,11 -12,19 -23,25 -10,6 -23,9 -37,9 -21,0 -37,-6 -48,-18 -11,-12 -16,-30 -16,-54z"/>
  </g>
 </g>
</svg>
