<?xml version="1.0" encoding="UTF-8"?>
<!DOCTYPE svg PUBLIC "-//W3C//DTD SVG 1.1//EN" "http://www.w3.org/Graphics/SVG/1.1/DTD/svg11.dtd">
<!-- Creator: CorelDRAW 2021 (64-Bit) -->
<svg xmlns="http://www.w3.org/2000/svg" xml:space="preserve" width="3.04661in" height="3.38489in" version="1.1" style="shape-rendering:geometricPrecision; text-rendering:geometricPrecision; image-rendering:optimizeQuality; fill-rule:evenodd; clip-rule:evenodd"
viewBox="0 0 3042 3380"
 xmlns:xlink="http://www.w3.org/1999/xlink"
 xmlns:xodm="http://www.corel.com/coreldraw/odm/2003">
 <defs>
  <style type="text/css">
   <![CDATA[
    .fil1 {fill:#373435;fill-rule:nonzero}
    .fil0 {fill:#282829;fill-rule:nonzero}
   ]]>
  </style>
 </defs>
 <g id="Layer_x0020_1">
  <metadata id="CorelCorpID_0Corel-Layer"/>
  <g id="_2614347113456">
   <g>
    <path class="fil0" d="M1491 321c0,-11 9,-21 21,-21 11,0 21,9 21,21l-42 0zm0 2625l0 -2625 42 0 0 2625 -42 0zm3 44l35 -23 -35 0 106 -164 35 23 -106 164 -35 0zm0 0l35 0 -17 27 -17 -27zm-89 -176l17 -11 107 164 -35 23 -107 -164 17 -11zm127 132c0,11 -9,21 -21,21 -11,0 -21,-9 -21,-21l42 0z"/>
   </g>
   <g>
    <path class="fil0" d="M52 336c-8,-8 -9,-21 -1,-29 8,-8 21,-9 29,-1l-28 31zm2850 2644l-2850 -2644 28 -31 2850 2644 -28 31zm34 27l7 -41 -24 26 -48 -190 40 -10 48 190 -24 26zm0 0l24 -26 8 31 -32 -5zm-189 -54l4 -20 193 34 -7 41 -193 -34 4 -20zm183 -4c8,8 9,21 1,29 -8,8 -21,9 -29,1l28 -31z"/>
   </g>
   <g>
    <path class="fil0" d="M2944 305c8,-8 22,-7 29,1 8,8 7,22 -1,29l-28 -31zm-2850 2644l2850 -2644 28 31 -2850 2644 -28 -31zm-30 32l40 10 -24 -26 193 -34 7 41 -193 34 -24 -26zm0 0l24 26 -32 6 8 -31zm68 -185l20 5 -48 190 -40 -10 48 -190 20 5zm-10 183c-8,8 -22,7 -29,-1 -8,-8 -7,-22 1,-29l28 31z"/>
   </g>
   <polygon class="fil1" points="2,238 2,0 162,0 162,28 33,28 33,102 145,102 145,130 33,130 33,238 "/>
   <path class="fil1" d="M1408 254l91 -238 35 0 97 238 -36 0 -28 -72 -100 0 -26 72 -33 0zm69 -98l81 0 -25 -66c-7,-20 -13,-37 -17,-50 -3,16 -8,31 -13,46l-26 70z"/>
   <path class="fil1" d="M2860 260l0 -238 90 0c16,0 28,1 36,2 12,2 22,6 29,11 8,5 14,13 19,23 5,10 7,21 7,32 0,20 -6,37 -19,51 -13,14 -36,21 -70,21l-61 0 0 97 -32 0zm32 -125l62 0c20,0 35,-4 43,-11 9,-8 13,-18 13,-32 0,-10 -2,-18 -8,-26 -5,-7 -12,-12 -20,-14 -5,-1 -15,-2 -29,-2l-61 0 0 85z"/>
   <path class="fil1" d="M0 3358l0 -238 90 0c16,0 28,1 36,2 12,2 22,6 29,11 8,5 14,13 19,23 5,10 7,21 7,32 0,20 -6,37 -19,51 -13,14 -36,21 -70,21l-61 0 0 97 -32 0zm32 -125l62 0c20,0 35,-4 43,-11 9,-8 13,-18 13,-32 0,-10 -2,-18 -8,-26 -5,-7 -12,-12 -20,-14 -5,-1 -15,-2 -29,-2l-61 0 0 85z"/>
   <path class="fil1" d="M1408 3374l91 -238 35 0 97 238 -36 0 -28 -72 -100 0 -26 72 -33 0zm69 -98l81 0 -25 -66c-7,-20 -13,-37 -17,-50 -3,16 -8,31 -13,46l-26 70z"/>
   <polygon class="fil1" points="2862,3380 2862,3142 3023,3142 3023,3170 2893,3170 2893,3244 3005,3244 3005,3272 2893,3272 2893,3380 "/>
  </g>
 </g>
</svg>
